<?xml version="1.0" encoding="UTF-8" standalone="no"?>
<!-- Created with Inkscape (http://www.inkscape.org/) -->
<svg xmlns:dc="http://purl.org/dc/elements/1.1/" xmlns:cc="http://creativecommons.org/ns#" xmlns:rdf="http://www.w3.org/1999/02/22-rdf-syntax-ns#" xmlns:svg="http://www.w3.org/2000/svg" xmlns="http://www.w3.org/2000/svg" xmlns:sodipodi="http://sodipodi.sourceforge.net/DTD/sodipodi-0.dtd" xmlns:inkscape="http://www.inkscape.org/namespaces/inkscape" width="417.14468" height="521.88458" id="svg2" version="1.1" inkscape:version="0.47pre4 r22446" sodipodi:docname="okuloLatere.svg" inkscape:export-filename="/home/yanpetro/Ubuntu One/NulaHoroStudoy/œil.png" inkscape:export-xdpi="72" inkscape:export-ydpi="72">
  <defs id="defs4">
    <inkscape:perspective sodipodi:type="inkscape:persp3d" inkscape:vp_x="0 : 526.18109 : 1" inkscape:vp_y="0 : 1000 : 0" inkscape:vp_z="744.09448 : 526.18109 : 1" inkscape:persp3d-origin="372.04724 : 350.78739 : 1" id="perspective10"/>
    <inkscape:perspective id="perspective3618" inkscape:persp3d-origin="0.5 : 0.33333333 : 1" inkscape:vp_z="1 : 0.5 : 1" inkscape:vp_y="0 : 1000 : 0" inkscape:vp_x="0 : 0.5 : 1" sodipodi:type="inkscape:persp3d"/>
    <inkscape:perspective id="perspective3643" inkscape:persp3d-origin="0.5 : 0.33333333 : 1" inkscape:vp_z="1 : 0.5 : 1" inkscape:vp_y="0 : 1000 : 0" inkscape:vp_x="0 : 0.5 : 1" sodipodi:type="inkscape:persp3d"/>
    <inkscape:perspective id="perspective3665" inkscape:persp3d-origin="0.5 : 0.33333333 : 1" inkscape:vp_z="1 : 0.5 : 1" inkscape:vp_y="0 : 1000 : 0" inkscape:vp_x="0 : 0.5 : 1" sodipodi:type="inkscape:persp3d"/>
    <inkscape:perspective id="perspective3692" inkscape:persp3d-origin="0.5 : 0.33333333 : 1" inkscape:vp_z="1 : 0.5 : 1" inkscape:vp_y="0 : 1000 : 0" inkscape:vp_x="0 : 0.5 : 1" sodipodi:type="inkscape:persp3d"/>
    <inkscape:perspective id="perspective4060" inkscape:persp3d-origin="0.5 : 0.33333333 : 1" inkscape:vp_z="1 : 0.5 : 1" inkscape:vp_y="0 : 1000 : 0" inkscape:vp_x="0 : 0.5 : 1" sodipodi:type="inkscape:persp3d"/>
    <inkscape:perspective id="perspective4592" inkscape:persp3d-origin="0.5 : 0.33333333 : 1" inkscape:vp_z="1 : 0.5 : 1" inkscape:vp_y="0 : 1000 : 0" inkscape:vp_x="0 : 0.5 : 1" sodipodi:type="inkscape:persp3d"/>
  </defs>
  <sodipodi:namedview id="base" pagecolor="#ffffff" bordercolor="#666666" borderopacity="1.0" inkscape:pageopacity="0.0" inkscape:pageshadow="2" inkscape:zoom="0.7" inkscape:cx="137.85709" inkscape:cy="240.92765" inkscape:document-units="px" inkscape:current-layer="layer5" showgrid="false" inkscape:window-width="1280" inkscape:window-height="950" inkscape:window-x="0" inkscape:window-y="25" inkscape:window-maximized="1"/>
  <metadata id="metadata7">
    <rdf:RDF>
      <cc:Work rdf:about="">
        <dc:format>image/svg+xml</dc:format>
        <dc:type rdf:resource="http://purl.org/dc/dcmitype/StillImage"/>
        <dc:title/>
      </cc:Work>
    </rdf:RDF>
  </metadata>
  <g inkscape:groupmode="layer" id="layer2" inkscape:label="œil" style="display:inline" transform="translate(-26.428573,76.535561)">
    <path style="fill:#fefefe;fill-opacity:1;stroke:#050505;stroke-width:10;stroke-linecap:butt;stroke-linejoin:miter;stroke-miterlimit:4;stroke-opacity:1;stroke-dasharray:none" d="m 31.428573,198.07647 c 0,0 162.548867,-143.807644 281.428567,-162.857145 C 465.4476,106.47961 401.47274,333.11481 307.14285,350.93361 182.86338,315.85149 31.428573,198.07647 31.428573,198.07647 z" id="path3606" sodipodi:nodetypes="cccc" inkscape:export-filename="/home/yanpetro/Ubuntu One/NulaHoroStudoy/oeilprofil.png" inkscape:export-xdpi="89" inkscape:export-ydpi="89"/>
  </g>
  <g inkscape:label="pupille" inkscape:groupmode="layer" id="layer1" style="display:inline" transform="translate(-26.428573,76.535561)">
    <path sodipodi:type="arc" style="opacity:0.54609931;fill:#5a5a5a;fill-opacity:1;fill-rule:nonzero;stroke:#050505;stroke-opacity:1" id="path2818" sodipodi:cx="397.14285" sodipodi:cy="229.50504" sodipodi:rx="140" sodipodi:ry="125.71429" d="m 537.14285,229.50504 c 0,69.43008 -62.68013,125.71428 -140,125.71428 -77.31986,0 -140,-56.2842 -140,-125.71428 0,-69.43009 62.68014,-125.71429 140,-125.71429 77.31987,0 140,56.2842 140,125.71429 z" transform="matrix(0.716887,0,0,1.2244877,21.722043,-88.663919)" inkscape:export-filename="/home/yanpetro/Ubuntu One/NulaHoroStudoy/oeilprofil.png" inkscape:export-xdpi="89.838554" inkscape:export-ydpi="89.838554"/>
    <path sodipodi:type="arc" style="fill:#030303;fill-opacity:1;fill-rule:nonzero;stroke:#050505;stroke-width:10;stroke-linejoin:bevel;stroke-miterlimit:4;stroke-opacity:1;stroke-dasharray:none" id="path3633" sodipodi:cx="307.14285" sodipodi:cy="625.2193" sodipodi:rx="87.14286" sodipodi:ry="81.428574" d="m 394.28571,625.2193 c 0,44.97176 -39.01518,81.42857 -87.14286,81.42857 -48.12767,0 -87.14286,-36.45681 -87.14286,-81.42857 0,-44.97176 39.01519,-81.42857 87.14286,-81.42857 48.12768,0 87.14286,36.45681 87.14286,81.42857 z" transform="matrix(0.57107774,0,0,1.0146621,177.45468,-452.02419)" inkscape:export-filename="/home/yanpetro/Ubuntu One/NulaHoroStudoy/oeilprofil.png" inkscape:export-xdpi="89.838554" inkscape:export-ydpi="89.838554"/>
  </g>
  <g inkscape:groupmode="layer" id="layer3" inkscape:label="reflets" style="display:inline" transform="translate(-26.428573,76.535561)">
    <path sodipodi:type="arc" style="fill:#fefefe;fill-opacity:1;fill-rule:nonzero;stroke:#050505;stroke-opacity:1;display:inline" id="path3608-7" sodipodi:cx="387.14285" sodipodi:cy="518.07648" sodipodi:rx="24.285715" sodipodi:ry="25.714285" d="m 411.42857,518.07648 c 0,14.2016 -10.87309,25.71428 -24.28572,25.71428 -13.41263,0 -24.28571,-11.51268 -24.28571,-25.71428 0,-14.20161 10.87308,-25.71429 24.28571,-25.71429 13.41263,0 24.28572,11.51268 24.28572,25.71429 z" transform="matrix(0.71842599,0,0,1.2896246,78.295083,-481.47623)" inkscape:export-filename="/home/yanpetro/Ubuntu One/NulaHoroStudoy/oeilprofil.png" inkscape:export-xdpi="89.838554" inkscape:export-ydpi="89.838554"/>
    <path sodipodi:type="arc" style="fill:#fefefe;fill-opacity:1;fill-rule:nonzero;stroke:#050505;stroke-opacity:1;display:inline" id="path3608" sodipodi:cx="387.14285" sodipodi:cy="518.07648" sodipodi:rx="24.285715" sodipodi:ry="25.714285" d="m 411.42857,518.07648 c 0,14.2016 -10.87309,25.71428 -24.28572,25.71428 -13.41263,0 -24.28571,-11.51268 -24.28571,-25.71428 0,-14.20161 10.87308,-25.71429 24.28571,-25.71429 13.41263,0 24.28572,11.51268 24.28572,25.71429 z" transform="matrix(0.38903427,0,0,0.89519901,211.53102,-315.70508)" inkscape:export-filename="/home/yanpetro/Ubuntu One/NulaHoroStudoy/oeilprofil.png" inkscape:export-xdpi="89.838554" inkscape:export-ydpi="89.838554"/>
  </g>
  <g inkscape:groupmode="layer" id="layer5" inkscape:label="cils" transform="translate(-5e-7,33.941882)">
    <path style="fill:#000000;fill-opacity:1;stroke:#ffffff;stroke-width:3.24539614;stroke-linecap:butt;stroke-linejoin:miter;stroke-miterlimit:4;stroke-opacity:1;stroke-dasharray:none;display:inline" d="M 3.5172055,220.91896 C 66.167518,152.21735 99.665187,96.569028 101.25267,54.920458 124.18639,97.926943 75.916033,141.11598 91.129957,135.94007 106.78091,130.61551 143.81633,75.314666 163.22177,27.279232 177.083,78.6467 135.59749,100.03871 156.00228,95.345544 c 20.40478,-4.693165 56.78935,-64.25933 74.42365,-98.0263187 6.91886,46.2966137 -19.22926,57.6667367 -13.74486,70.2557687 5.48442,12.589032 57.65526,-43.194986 90.78078,-84.124685 -4.98886,55.768643 -49.42535,68.574283 -38.77359,75.058573 9.96612,6.066911 75.29312,-20.036251 146.83374,-90.828066 C 374.95951,38.162641 313.92848,70.10239 340.55758,53.213467 362.66406,39.19292 312.33378,74.416032 293.62362,74.675624 276.59464,74.91189 231.58681,71.501373 189.5945,95.429053 111.45827,139.95191 65.290587,167.97708 3.8421901,234.02835" id="path3679" sodipodi:nodetypes="cczczczczcsssz" inkscape:export-xdpi="89.838554" inkscape:export-ydpi="89.838554" inkscape:export-filename="/home/yanpetro/Ubuntu One/NulaHoroStudoy/oeilprofil.png"/>
    <path style="fill:#000000;fill-opacity:1;stroke:#ffffff;stroke-width:3;stroke-linecap:butt;stroke-linejoin:miter;stroke-miterlimit:4;stroke-opacity:1;stroke-dasharray:none;display:inline" d="M 6.8040051,249.67316 C 68.313117,303.63529 105.35923,374.92443 106.81801,412.30075 114.10745,385.979 89.665104,340.55736 100.7884,342.34519 c 12.79322,2.05623 53.75658,65.94261 60.50234,97.61854 12.73743,-26.86781 -22.31359,-65.29814 -7.97718,-62.51231 12.96258,2.51887 60.03212,89.39862 60.03212,89.39862 0,0 -17.3708,-61.75358 -13.71684,-68.7642 3.65396,-7.01063 62.55303,51.62566 92.99286,88.35685 1.97936,-34.66362 -64.87485,-74.18779 -37.49276,-78.78995 27.38209,-4.60216 57.7665,27.99201 93.01942,62.94184 -24.9353,-39.94719 -17.06203,-40.44775 -31.1166,-56.46488 -15.36292,-17.50815 -25.87905,-17.23341 -34.61141,-19.55148 -22.05375,-5.85431 -62.46473,-0.0111 -101.05248,-21.48436 C 109.56663,333.13809 58.318043,294.62028 1.8516481,235.34445" id="path3679-1" sodipodi:nodetypes="cczczczczczssz" inkscape:export-xdpi="89.838554" inkscape:export-ydpi="89.838554" inkscape:export-filename="/home/yanpetro/Ubuntu One/NulaHoroStudoy/oeilprofil.png"/>
  </g>
</svg>